<svg xmlns="http://www.w3.org/2000/svg" viewBox="0 0 230 190" width="230" height="190">
  <!-- Corpo della posa "cashier", senza ali/antenne: vedi bee_sip_body.svg per la
       spiegazione dello split in layer. Unica posa speculare (guarda a sinistra,
       applicato da BeeArt(flipped: true), non qui) e con wrapping esterno diverso
       (rotate(7 130 96) invece di rotate(16 118 96)) — transcritto da
       bee({pose:'cashier'}) in "D3 Guida Implementazione.dc.html". Zampe anteriori
       standard assenti (gesto sostituito dal gruppo #cashier-arms sui tasti, disegnato
       sopra il collare invece che prima della testa). -->
  <defs>
    <radialGradient id="hd" cx="34%" cy="26%" r="78%">
      <stop offset="0" stop-color="#FFEDA8"/><stop offset=".58" stop-color="#FFC62E"/><stop offset="1" stop-color="#EDA015"/>
    </radialGradient>
    <linearGradient id="ab" x1="0" y1="0" x2=".2" y2="1">
      <stop offset="0" stop-color="#FFDA5C"/><stop offset="1" stop-color="#EDA015"/>
    </linearGradient>
    <linearGradient id="hm" x1=".1" y1="0" x2=".5" y2="1">
      <stop offset="0" stop-color="#FFE277"/><stop offset="1" stop-color="#EDA015"/>
    </linearGradient>
    <clipPath id="ac"><ellipse cx="80" cy="94" rx="53" ry="39" transform="rotate(-16 80 94)"/></clipPath>
  </defs>

  <g id="body" transform="rotate(7 130 96)">

  <g fill="none" stroke="#5B3312" stroke-width="11" stroke-linecap="round" stroke-linejoin="round">
    <path d="M84 122 L78 144 L88 158"/><path d="M106 128 L106 150 L118 160"/><path d="M126 126 L131 148 L145 154"/>
  </g>
  <g transform="rotate(-16 80 94)">
    <path d="M34 76 L2 92 L34 112 Z" fill="#4E2C0E" stroke="#4A2C11" stroke-width="4" stroke-linejoin="round"/>
  </g>
  <ellipse cx="80" cy="94" rx="53" ry="39" transform="rotate(-16 80 94)" fill="url(#ab)" stroke="#4A2C11" stroke-width="4.6"/>
  <g clip-path="url(#ac)">
    <g transform="rotate(-16 80 94)" fill="#4E2C0E">
      <rect x="36" y="50" width="22" height="95"/><rect x="70" y="50" width="24" height="95"/><rect x="106" y="50" width="20" height="95"/>
    </g>
  </g>
  <ellipse cx="72" cy="72" rx="25" ry="9" transform="rotate(-18 72 72)" fill="#ffffff" opacity=".22"/>
  <g fill="#FFFDF6" stroke="#4A2C11" stroke-width="4">
    <circle cx="118" cy="45" r="12"/><circle cx="106" cy="61" r="13"/><circle cx="103" cy="81" r="13"/><circle cx="110" cy="99" r="12"/><circle cx="123" cy="113" r="11"/>
  </g>
  <ellipse cx="136" cy="79" rx="28" ry="40" fill="#FFFDF6"/>
  <circle cx="160" cy="74" r="41" fill="url(#hd)" stroke="#4A2C11" stroke-width="4.6"/>
  <ellipse cx="147" cy="79" rx="9" ry="11.5" fill="#3A2208"/><ellipse cx="175" cy="79" rx="9" ry="11.5" fill="#3A2208"/>
  <circle cx="144" cy="74" r="3.6" fill="#ffffff"/><circle cx="172" cy="74" r="3.6" fill="#ffffff"/>
  <ellipse cx="134" cy="96" rx="9" ry="5.5" fill="#F58A8A" opacity=".55"/><ellipse cx="186" cy="96" rx="9" ry="5.5" fill="#F58A8A" opacity=".55"/>
  <path d="M152 97 q9 9 18 -1" fill="none" stroke="#4A2C11" stroke-width="4" stroke-linecap="round"/>
  <path d="M129 51 q2 -41 33 -41 q33 0 39 41 z" fill="url(#hm)" stroke="#4A2C11" stroke-width="4.4" stroke-linejoin="round"/>
  <path d="M163 13 q-5 18 -3 37" fill="none" stroke="#4A2C11" stroke-opacity=".22" stroke-width="4"/>
  <path d="M112 51 q50 -15 100 0 q-50 17 -100 0 z" fill="#FFC62E" stroke="#4A2C11" stroke-width="4.4" stroke-linejoin="round"/>
  <g id="cashier-arms">
    <g fill="none" stroke="#5B3312" stroke-width="10" stroke-linecap="round" stroke-linejoin="round">
      <path d="M138 116 L168 132 L200 138"/><path d="M124 124 L156 148 L190 152"/>
    </g>
    <g fill="none" stroke="#5B3312" stroke-width="6" stroke-linecap="round">
      <path d="M200 138 l11 3"/><path d="M199 143 l11 5"/><path d="M190 152 l12 3"/>
    </g>
  </g>
  </g>
</svg>
